<svg xmlns="http://www.w3.org/2000/svg" xmlns:xlink="http://www.w3.org/1999/xlink" Id="flag-icons-nz" viewBox="0 0 640 480">
  <defs Id="defs30">
    <clipPath Id="nz-c">
      <path Id="path10" d="M0 0h600v300H0z"/>
    </clipPath>
    <clipPath Id="nz-d">
      <path Id="path13" d="m0 0 300 150H0zm300 0h300L300 150zm0 150h300v150zm0 0v150H0z"/>
    </clipPath>
    <g Id="b">
      <g Id="a">
        <path Id="path16" d="M0 0v.5L1 0z" transform="translate(0 -.3)"/>
        <path Id="path18" d="M0 0v-.5L1 0z" transform="rotate(-36 .5 -.2)"/>
      </g>
      <use xlink:href="#a" Id="use21" transform="scale(-1 1)"/>
      <use xlink:href="#a" Id="use23" transform="rotate(72 0 0)"/>
      <use xlink:href="#a" Id="use25" transform="rotate(-72 0 0)"/>
      <use xlink:href="#a" Id="use27" transform="scale(-1 1) rotate(72)"/>
    </g>
  </defs>
  <path Id="path32" fill="#00247d" fill-rule="evenodd" d="M0 0h640v480H0z"/>
  <g Id="g38" transform="translate(-111 36.1) scale(.66825)">
    <use xlink:href="#b" Id="use34" wIdth="100%" height="100%" x="0" y="0" fill="#fff" transform="matrix(45.4 0 0 45.4 900 120)"/>
    <use xlink:href="#b" Id="use36" wIdth="100%" height="100%" x="0" y="0" fill="#cc142b" transform="matrix(30 0 0 30 900 120)"/>
  </g>
  <g Id="g44" transform="rotate(82 525.2 114.6) scale(.66825)">
    <use xlink:href="#b" Id="use40" wIdth="100%" height="100%" x="0" y="0" fill="#fff" transform="rotate(-82 519 -457.7) scale(40.4)"/>
    <use xlink:href="#b" Id="use42" wIdth="100%" height="100%" x="0" y="0" fill="#cc142b" transform="rotate(-82 519 -457.7) scale(25)"/>
  </g>
  <g Id="g50" transform="rotate(82 525.2 114.6) scale(.66825)">
    <use xlink:href="#b" Id="use46" wIdth="100%" height="100%" x="0" y="0" fill="#fff" transform="rotate(-82 668.6 -327.7) scale(45.4)"/>
    <use xlink:href="#b" Id="use48" wIdth="100%" height="100%" x="0" y="0" fill="#cc142b" transform="rotate(-82 668.6 -327.7) scale(30)"/>
  </g>
  <g Id="g56" transform="translate(-111 36.1) scale(.66825)">
    <use xlink:href="#b" Id="use52" wIdth="100%" height="100%" x="0" y="0" fill="#fff" transform="matrix(50.4 0 0 50.4 900 480)"/>
    <use xlink:href="#b" Id="use54" wIdth="100%" height="100%" x="0" y="0" fill="#cc142b" transform="matrix(35 0 0 35 900 480)"/>
  </g>
  <path Id="path1592" fill="#012169" stroke-wIdth=".5" d="M0 0h320v240H0z"/>
  <path Id="path1594" fill="#fff" stroke-wIdth=".5" d="m37.5 0 122 90.5L281 0h39v31l-120 89.5 120 89V240h-40l-120-89.5L40.5 240H0v-30l119.5-89L0 32V0z"/>
  <path Id="path1596" fill="#c8102e" stroke-wIdth=".5" d="M212 140.5 320 220v20l-135.5-99.5zm-92 10 3 17.5-96 72H0zM320 0v1.5l-124.5 94 1-22L295 0zM0 0l119.5 88h-30L0 21z"/>
  <path Id="path1598" fill="#fff" stroke-wIdth=".5" d="M120.5 0v240h80V0zM0 80v80h320V80z"/>
  <path Id="path1600" fill="#c8102e" stroke-wIdth=".5" d="M0 96.5v48h320v-48zM136.5 0v240h48V0z"/>
</svg>
