<svg xmlns="http://www.w3.org/2000/svg" xmlns:xlink="http://www.w3.org/1999/xlink" Id="flag-icons-nz" viewBox="0 0 512 512">
  <defs Id="defs482">
    <clipPath Id="nz-c">
      <path Id="path462" d="M0 0h600v300H0z"/>
    </clipPath>
    <clipPath Id="nz-d">
      <path Id="path465" d="m0 0 300 150H0zm300 0h300L300 150zm0 150h300v150zm0 0v150H0z"/>
    </clipPath>
    <g Id="b">
      <g Id="a">
        <path Id="path468" d="M0 0v.5L1 0z" transform="translate(0 -.3)"/>
        <path Id="path470" d="M0 0v-.5L1 0z" transform="rotate(-36 .5 -.2)"/>
      </g>
      <use xlink:href="#a" Id="use473" transform="scale(-1 1)"/>
      <use xlink:href="#a" Id="use475" transform="rotate(72 0 0)"/>
      <use xlink:href="#a" Id="use477" transform="rotate(-72 0 0)"/>
      <use xlink:href="#a" Id="use479" transform="scale(-1 1) rotate(72)"/>
    </g>
  </defs>
  <path Id="path484" fill="#00247d" fill-rule="evenodd" d="M0 0h512v512H0z"/>
  <g Id="g490" transform="translate(-148.7 90.5) scale(.60566)">
    <use xlink:href="#b" Id="use486" wIdth="100%" height="100%" x="0" y="0" fill="#fff" transform="matrix(45.4 0 0 45.4 900 120)"/>
    <use xlink:href="#b" Id="use488" wIdth="100%" height="100%" x="0" y="0" fill="#cc142b" transform="matrix(30 0 0 30 900 120)"/>
  </g>
  <g Id="g496" transform="rotate(82 418.7 105.1) scale(.60566)">
    <use xlink:href="#b" Id="use492" wIdth="100%" height="100%" x="0" y="0" fill="#fff" transform="rotate(-82 519 -457.7) scale(40.4)"/>
    <use xlink:href="#b" Id="use494" wIdth="100%" height="100%" x="0" y="0" fill="#cc142b" transform="rotate(-82 519 -457.7) scale(25)"/>
  </g>
  <g Id="g502" transform="rotate(82 418.7 105.1) scale(.60566)">
    <use xlink:href="#b" Id="use498" wIdth="100%" height="100%" x="0" y="0" fill="#fff" transform="rotate(-82 668.6 -327.7) scale(45.4)"/>
    <use xlink:href="#b" Id="use500" wIdth="100%" height="100%" x="0" y="0" fill="#cc142b" transform="rotate(-82 668.6 -327.7) scale(30)"/>
  </g>
  <g Id="g508" transform="translate(-148.7 90.5) scale(.60566)">
    <use xlink:href="#b" Id="use504" wIdth="100%" height="100%" x="0" y="0" fill="#fff" transform="matrix(50.4 0 0 50.4 900 480)"/>
    <use xlink:href="#b" Id="use506" wIdth="100%" height="100%" x="0" y="0" fill="#cc142b" transform="matrix(35 0 0 35 900 480)"/>
  </g>
  <path Id="path864" fill="#012169" stroke-wIdth=".5" d="M0 0h256v256H0z"/>
  <path Id="path866" fill="#fff" stroke-wIdth=".5" d="M256 0v32l-95 96 95 93.5V256h-33.5L127 162l-93 94H0v-34l93-93.5L0 37V0h31l96 94 93-94z"/>
  <path Id="path868" fill="#c8102e" stroke-wIdth=".5" d="m92 162 5.5 17L21 256H0v-1.5zm62-6 27 4 75 73.5V256zM256 0l-96 98-2-22 75-76zM0 .5 96.5 95 67 91 0 24.5z"/>
  <path Id="path870" fill="#fff" stroke-wIdth=".5" d="M88 0v256h80V0zM0 88v80h256V88z"/>
  <path Id="path872" fill="#c8102e" stroke-wIdth=".5" d="M0 104v48h256v-48zM104 0v256h48V0z"/>
</svg>
